<mxfile host="app.diagrams.net" modified="2024-05-15T00:14:09.669Z" agent="Mozilla/5.0 (Windows NT 10.0; Win64; x64) AppleWebKit/537.36 (KHTML, like Gecko) Chrome/124.0.0.0 Safari/537.36 Edg/124.0.0.0" etag="4-GQa1JfS3vspfNd6Cua" version="24.4.0" type="github">
  <diagram id="C5RBs43oDa-KdzZeNtuy" name="Page-1">
    <mxGraphModel dx="1029" dy="859" grid="1" gridSize="10" guides="1" tooltips="1" connect="1" arrows="1" fold="1" page="1" pageScale="1" pageWidth="827" pageHeight="1169" math="0" shadow="0">
      <root>
        <mxCell id="WIyWlLk6GJQsqaUBKTNV-0" />
        <mxCell id="WIyWlLk6GJQsqaUBKTNV-1" parent="WIyWlLk6GJQsqaUBKTNV-0" />
        <mxCell id="WIyWlLk6GJQsqaUBKTNV-3" value="&lt;span style=&quot;color: rgb(255, 255, 255); font-family: &amp;quot;Söhne Mono&amp;quot;, Monaco, &amp;quot;Andale Mono&amp;quot;, &amp;quot;Ubuntu Mono&amp;quot;, monospace; font-size: 14px; text-align: left; white-space: pre; background-color: rgb(13, 13, 13);&quot;&gt; &lt;/span&gt;&lt;span style=&quot;border: 0px solid rgb(227, 227, 227); box-sizing: border-box; --tw-border-spacing-x: 0; --tw-border-spacing-y: 0; --tw-translate-x: 0; --tw-translate-y: 0; --tw-rotate: 0; --tw-skew-x: 0; --tw-skew-y: 0; --tw-scale-x: 1; --tw-scale-y: 1; --tw-pan-x: ; --tw-pan-y: ; --tw-pinch-zoom: ; --tw-scroll-snap-strictness: proximity; --tw-gradient-from-position: ; --tw-gradient-via-position: ; --tw-gradient-to-position: ; --tw-ordinal: ; --tw-slashed-zero: ; --tw-numeric-figure: ; --tw-numeric-spacing: ; --tw-numeric-fraction: ; --tw-ring-inset: ; --tw-ring-offset-width: 0px; --tw-ring-offset-color: #fff; --tw-ring-color: rgba(69,89,164,.5); --tw-ring-offset-shadow: 0 0 transparent; --tw-ring-shadow: 0 0 transparent; --tw-shadow: 0 0 transparent; --tw-shadow-colored: 0 0 transparent; --tw-blur: ; --tw-brightness: ; --tw-contrast: ; --tw-grayscale: ; --tw-hue-rotate: ; --tw-invert: ; --tw-saturate: ; --tw-sepia: ; --tw-drop-shadow: ; --tw-backdrop-blur: ; --tw-backdrop-brightness: ; --tw-backdrop-contrast: ; --tw-backdrop-grayscale: ; --tw-backdrop-hue-rotate: ; --tw-backdrop-invert: ; --tw-backdrop-opacity: ; --tw-backdrop-saturate: ; --tw-backdrop-sepia: ; --tw-contain-size: ; --tw-contain-layout: ; --tw-contain-paint: ; --tw-contain-style: ; color: rgb(46, 149, 211); font-family: &amp;quot;Söhne Mono&amp;quot;, Monaco, &amp;quot;Andale Mono&amp;quot;, &amp;quot;Ubuntu Mono&amp;quot;, monospace; font-size: 14px; text-align: left; white-space: pre; background-color: rgb(13, 13, 13);&quot; class=&quot;hljs-keyword&quot;&gt;Start&lt;/span&gt;&lt;span style=&quot;color: rgb(255, 255, 255); font-family: &amp;quot;Söhne Mono&amp;quot;, Monaco, &amp;quot;Andale Mono&amp;quot;, &amp;quot;Ubuntu Mono&amp;quot;, monospace; font-size: 14px; text-align: left; white-space: pre; background-color: rgb(13, 13, 13);&quot;&gt;   &lt;/span&gt;" style="rounded=1;whiteSpace=wrap;html=1;fontSize=12;glass=0;strokeWidth=1;shadow=0;fillColor=#dae8fc;strokeColor=#6c8ebf;" parent="WIyWlLk6GJQsqaUBKTNV-1" vertex="1">
          <mxGeometry x="40" y="40" width="120" height="40" as="geometry" />
        </mxCell>
        <mxCell id="WIyWlLk6GJQsqaUBKTNV-7" value="&lt;div style=&quot;text-align: left;&quot;&gt;&lt;font face=&quot;Söhne Mono, Monaco, Andale Mono, Ubuntu Mono, monospace&quot;&gt;&lt;span style=&quot;font-size: 14px; white-space: pre; background-color: rgb(13, 13, 13);&quot;&gt;&lt;font color=&quot;#ffffff&quot;&gt;Prompt user for &lt;/font&gt;&lt;font color=&quot;#ff4e4e&quot;&gt;color1&lt;/font&gt;&lt;/span&gt;&lt;/font&gt;&lt;/div&gt;" style="rounded=1;whiteSpace=wrap;html=1;fontSize=12;glass=0;strokeWidth=1;shadow=0;fillColor=#dae8fc;strokeColor=#6c8ebf;" parent="WIyWlLk6GJQsqaUBKTNV-1" vertex="1">
          <mxGeometry x="140" y="120" width="190" height="50" as="geometry" />
        </mxCell>
        <mxCell id="WIyWlLk6GJQsqaUBKTNV-11" value="&lt;span style=&quot;color: rgb(255, 255, 255); font-family: &amp;quot;Söhne Mono&amp;quot;, Monaco, &amp;quot;Andale Mono&amp;quot;, &amp;quot;Ubuntu Mono&amp;quot;, monospace; font-size: 14px; text-align: left; white-space: pre; background-color: rgb(13, 13, 13);&quot;&gt;Prompt user for &lt;/span&gt;&lt;font color=&quot;#3399ff&quot;&gt;&lt;span style=&quot;font-family: &amp;quot;Söhne Mono&amp;quot;, Monaco, &amp;quot;Andale Mono&amp;quot;, &amp;quot;Ubuntu Mono&amp;quot;, monospace; font-size: 14px; text-align: left; white-space: pre; background-color: rgb(13, 13, 13);&quot;&gt;c&lt;/span&gt;&lt;span style=&quot;font-family: &amp;quot;Söhne Mono&amp;quot;, Monaco, &amp;quot;Andale Mono&amp;quot;, &amp;quot;Ubuntu Mono&amp;quot;, monospace; font-size: 14px; text-align: left; white-space: pre; background-color: rgb(13, 13, 13);&quot;&gt;olor2&lt;/span&gt;&lt;/font&gt;&lt;span style=&quot;color: rgb(255, 255, 255); font-family: &amp;quot;Söhne Mono&amp;quot;, Monaco, &amp;quot;Andale Mono&amp;quot;, &amp;quot;Ubuntu Mono&amp;quot;, monospace; font-size: 14px; text-align: left; white-space: pre; background-color: rgb(13, 13, 13);&quot;&gt; &lt;/span&gt;" style="rounded=1;whiteSpace=wrap;html=1;fontSize=12;glass=0;strokeWidth=1;shadow=0;fillColor=#dae8fc;strokeColor=#6c8ebf;" parent="WIyWlLk6GJQsqaUBKTNV-1" vertex="1">
          <mxGeometry x="40" y="280" width="180" height="40" as="geometry" />
        </mxCell>
        <mxCell id="WIyWlLk6GJQsqaUBKTNV-12" value="&lt;span style=&quot;color: rgb(255, 255, 255); font-family: &amp;quot;Söhne Mono&amp;quot;, Monaco, &amp;quot;Andale Mono&amp;quot;, &amp;quot;Ubuntu Mono&amp;quot;, monospace; font-size: 14px; text-align: left; white-space: pre; background-color: rgb(13, 13, 13);&quot;&gt;Read input as&lt;/span&gt;&lt;span style=&quot;color: rgb(255, 255, 255); font-family: &amp;quot;Söhne Mono&amp;quot;, Monaco, &amp;quot;Andale Mono&amp;quot;, &amp;quot;Ubuntu Mono&amp;quot;, monospace; font-size: 14px; text-align: left; white-space: pre; background-color: rgb(13, 13, 13);&quot;&gt; &lt;/span&gt;&lt;span style=&quot;font-family: &amp;quot;Söhne Mono&amp;quot;, Monaco, &amp;quot;Andale Mono&amp;quot;, &amp;quot;Ubuntu Mono&amp;quot;, monospace; font-size: 14px; text-align: left; white-space: pre; background-color: rgb(13, 13, 13);&quot;&gt;&lt;font color=&quot;#ff4e4e&quot;&gt;color1&lt;/font&gt;&lt;/span&gt;" style="rounded=1;whiteSpace=wrap;html=1;fontSize=12;glass=0;strokeWidth=1;shadow=0;fillColor=#dae8fc;strokeColor=#6c8ebf;" parent="WIyWlLk6GJQsqaUBKTNV-1" vertex="1">
          <mxGeometry x="210" y="195" width="170" height="40" as="geometry" />
        </mxCell>
        <mxCell id="tAK1Aq4FmUaZZ4Jkdsqc-34" style="edgeStyle=orthogonalEdgeStyle;rounded=0;orthogonalLoop=1;jettySize=auto;html=1;entryX=0.5;entryY=0;entryDx=0;entryDy=0;" edge="1" parent="WIyWlLk6GJQsqaUBKTNV-1" source="tAK1Aq4FmUaZZ4Jkdsqc-4" target="tAK1Aq4FmUaZZ4Jkdsqc-33">
          <mxGeometry relative="1" as="geometry" />
        </mxCell>
        <mxCell id="tAK1Aq4FmUaZZ4Jkdsqc-4" value="&lt;span style=&quot;color: rgb(255, 255, 255); font-family: &amp;quot;Söhne Mono&amp;quot;, Monaco, &amp;quot;Andale Mono&amp;quot;, &amp;quot;Ubuntu Mono&amp;quot;, monospace; font-size: 14px; text-align: left; white-space: pre; background-color: rgb(13, 13, 13);&quot;&gt;Read input as&lt;/span&gt;&lt;span style=&quot;color: rgb(255, 255, 255); font-family: &amp;quot;Söhne Mono&amp;quot;, Monaco, &amp;quot;Andale Mono&amp;quot;, &amp;quot;Ubuntu Mono&amp;quot;, monospace; font-size: 14px; text-align: left; white-space: pre; background-color: rgb(13, 13, 13);&quot;&gt; &lt;/span&gt;&lt;span style=&quot;font-family: &amp;quot;Söhne Mono&amp;quot;, Monaco, &amp;quot;Andale Mono&amp;quot;, &amp;quot;Ubuntu Mono&amp;quot;, monospace; font-size: 14px; text-align: left; white-space: pre; background-color: rgb(13, 13, 13);&quot;&gt;&lt;font color=&quot;#3399ff&quot;&gt;color2&lt;/font&gt;&lt;/span&gt;" style="rounded=1;whiteSpace=wrap;html=1;fontSize=12;glass=0;strokeWidth=1;shadow=0;fillColor=#dae8fc;strokeColor=#6c8ebf;" vertex="1" parent="WIyWlLk6GJQsqaUBKTNV-1">
          <mxGeometry x="160" y="360" width="170" height="40" as="geometry" />
        </mxCell>
        <mxCell id="tAK1Aq4FmUaZZ4Jkdsqc-7" value="" style="rounded=1;whiteSpace=wrap;html=1;fontSize=12;glass=0;strokeWidth=1;shadow=0;fillColor=#e1d5e7;strokeColor=#CC99FF;" vertex="1" parent="WIyWlLk6GJQsqaUBKTNV-1">
          <mxGeometry x="430" y="70" width="170" height="250" as="geometry" />
        </mxCell>
        <mxCell id="tAK1Aq4FmUaZZ4Jkdsqc-32" style="edgeStyle=orthogonalEdgeStyle;rounded=0;orthogonalLoop=1;jettySize=auto;html=1;entryX=0.5;entryY=0;entryDx=0;entryDy=0;" edge="1" parent="WIyWlLk6GJQsqaUBKTNV-1" source="tAK1Aq4FmUaZZ4Jkdsqc-8" target="tAK1Aq4FmUaZZ4Jkdsqc-29">
          <mxGeometry relative="1" as="geometry" />
        </mxCell>
        <mxCell id="tAK1Aq4FmUaZZ4Jkdsqc-8" value="If (&lt;font color=&quot;#ff4e4e&quot;&gt;color1&lt;/font&gt; is &quot;&lt;font color=&quot;#ff4e4e&quot;&gt;red&lt;/font&gt;&quot; AND  &lt;br&gt;&lt;br&gt;&lt;font color=&quot;#3399ff&quot;&gt; color2&lt;/font&gt; is &quot;&lt;font color=&quot;#3399ff&quot;&gt;blue&quot;&lt;/font&gt;) OR     &lt;br&gt;&lt;br&gt; (&lt;font color=&quot;#3399ff&quot;&gt;color1&lt;/font&gt; is &quot;&lt;font color=&quot;#3399ff&quot;&gt;blue&lt;/font&gt;&quot; AND&amp;nbsp; &amp;nbsp; &amp;nbsp; &amp;nbsp; &amp;nbsp;&amp;nbsp;&lt;br&gt;&lt;br&gt;&lt;font color=&quot;#ff4e4e&quot;&gt;color2&lt;/font&gt; is &quot;&lt;font color=&quot;#ff4e4e&quot;&gt;red&lt;/font&gt;&quot;),        &lt;br&gt;&lt;br&gt; then                     &lt;br&gt;&lt;br&gt;  Display &quot;When you mix  &lt;br&gt;&lt;br&gt;&lt;font color=&quot;#ff4e4e&quot;&gt;   red&lt;/font&gt; and &lt;font color=&quot;#3399ff&quot;&gt;blue&lt;/font&gt;, you get  &lt;br&gt;&lt;br&gt;&lt;font color=&quot;#cc99ff&quot;&gt;  purple&lt;/font&gt;.&quot;" style="text;whiteSpace=wrap;html=1;verticalAlign=middle;fontColor=#FFFFFF;labelBackgroundColor=#121212;labelBorderColor=none;textShadow=0;" vertex="1" parent="WIyWlLk6GJQsqaUBKTNV-1">
          <mxGeometry x="437.5" y="80" width="162.5" height="230" as="geometry" />
        </mxCell>
        <mxCell id="tAK1Aq4FmUaZZ4Jkdsqc-14" style="edgeStyle=orthogonalEdgeStyle;rounded=0;orthogonalLoop=1;jettySize=auto;html=1;entryX=0.447;entryY=-0.1;entryDx=0;entryDy=0;entryPerimeter=0;" edge="1" parent="WIyWlLk6GJQsqaUBKTNV-1" source="WIyWlLk6GJQsqaUBKTNV-11" target="tAK1Aq4FmUaZZ4Jkdsqc-4">
          <mxGeometry relative="1" as="geometry" />
        </mxCell>
        <mxCell id="tAK1Aq4FmUaZZ4Jkdsqc-15" style="edgeStyle=orthogonalEdgeStyle;rounded=0;orthogonalLoop=1;jettySize=auto;html=1;entryX=0.588;entryY=0;entryDx=0;entryDy=0;entryPerimeter=0;" edge="1" parent="WIyWlLk6GJQsqaUBKTNV-1" source="WIyWlLk6GJQsqaUBKTNV-7" target="WIyWlLk6GJQsqaUBKTNV-12">
          <mxGeometry relative="1" as="geometry" />
        </mxCell>
        <mxCell id="tAK1Aq4FmUaZZ4Jkdsqc-16" style="edgeStyle=orthogonalEdgeStyle;rounded=0;orthogonalLoop=1;jettySize=auto;html=1;entryX=0.632;entryY=-0.08;entryDx=0;entryDy=0;entryPerimeter=0;" edge="1" parent="WIyWlLk6GJQsqaUBKTNV-1" source="WIyWlLk6GJQsqaUBKTNV-3" target="WIyWlLk6GJQsqaUBKTNV-7">
          <mxGeometry relative="1" as="geometry" />
        </mxCell>
        <mxCell id="tAK1Aq4FmUaZZ4Jkdsqc-17" style="edgeStyle=orthogonalEdgeStyle;rounded=0;orthogonalLoop=1;jettySize=auto;html=1;entryX=0.044;entryY=0;entryDx=0;entryDy=0;entryPerimeter=0;" edge="1" parent="WIyWlLk6GJQsqaUBKTNV-1" source="WIyWlLk6GJQsqaUBKTNV-3" target="WIyWlLk6GJQsqaUBKTNV-11">
          <mxGeometry relative="1" as="geometry" />
        </mxCell>
        <mxCell id="tAK1Aq4FmUaZZ4Jkdsqc-20" style="edgeStyle=orthogonalEdgeStyle;rounded=0;orthogonalLoop=1;jettySize=auto;html=1;entryX=-0.014;entryY=0.281;entryDx=0;entryDy=0;entryPerimeter=0;" edge="1" parent="WIyWlLk6GJQsqaUBKTNV-1" source="WIyWlLk6GJQsqaUBKTNV-7" target="tAK1Aq4FmUaZZ4Jkdsqc-7">
          <mxGeometry relative="1" as="geometry" />
        </mxCell>
        <mxCell id="tAK1Aq4FmUaZZ4Jkdsqc-21" style="edgeStyle=orthogonalEdgeStyle;rounded=0;orthogonalLoop=1;jettySize=auto;html=1;entryX=-0.018;entryY=0.822;entryDx=0;entryDy=0;entryPerimeter=0;" edge="1" parent="WIyWlLk6GJQsqaUBKTNV-1" source="WIyWlLk6GJQsqaUBKTNV-11" target="tAK1Aq4FmUaZZ4Jkdsqc-7">
          <mxGeometry relative="1" as="geometry" />
        </mxCell>
        <mxCell id="tAK1Aq4FmUaZZ4Jkdsqc-22" style="edgeStyle=orthogonalEdgeStyle;rounded=0;orthogonalLoop=1;jettySize=auto;html=1;entryX=0.182;entryY=1;entryDx=0;entryDy=0;entryPerimeter=0;" edge="1" parent="WIyWlLk6GJQsqaUBKTNV-1" source="tAK1Aq4FmUaZZ4Jkdsqc-4" target="tAK1Aq4FmUaZZ4Jkdsqc-7">
          <mxGeometry relative="1" as="geometry" />
        </mxCell>
        <mxCell id="tAK1Aq4FmUaZZ4Jkdsqc-23" style="edgeStyle=orthogonalEdgeStyle;rounded=0;orthogonalLoop=1;jettySize=auto;html=1;entryX=-0.018;entryY=0.711;entryDx=0;entryDy=0;entryPerimeter=0;" edge="1" parent="WIyWlLk6GJQsqaUBKTNV-1" source="WIyWlLk6GJQsqaUBKTNV-12" target="tAK1Aq4FmUaZZ4Jkdsqc-7">
          <mxGeometry relative="1" as="geometry" />
        </mxCell>
        <mxCell id="tAK1Aq4FmUaZZ4Jkdsqc-24" value="" style="rounded=1;whiteSpace=wrap;html=1;fontSize=12;glass=0;strokeWidth=1;shadow=0;fillColor=#ffe6cc;strokeColor=#FF6C17;labelBackgroundColor=default;" vertex="1" parent="WIyWlLk6GJQsqaUBKTNV-1">
          <mxGeometry x="300" y="470" width="170" height="250" as="geometry" />
        </mxCell>
        <mxCell id="tAK1Aq4FmUaZZ4Jkdsqc-25" value="If (&lt;font color=&quot;#ff4e4e&quot;&gt;color1&lt;/font&gt; is &quot;&lt;font color=&quot;#ff4e4e&quot;&gt;red&lt;/font&gt;&quot; AND  &lt;br&gt;&lt;br&gt;&lt;font color=&quot;#664d08&quot;&gt; color2&lt;/font&gt; is &quot;&lt;font color=&quot;#785b0a&quot;&gt;yellow&lt;/font&gt;&lt;font color=&quot;#3399ff&quot;&gt;&quot;&lt;/font&gt;) OR     &lt;br&gt;&lt;br&gt; (&lt;font color=&quot;#785b0a&quot;&gt;color1&lt;/font&gt; is &quot;&lt;font color=&quot;#785b0a&quot;&gt;yellow&lt;/font&gt;&quot; AND&amp;nbsp; &amp;nbsp; &amp;nbsp; &amp;nbsp; &amp;nbsp;&amp;nbsp;&lt;br&gt;&lt;br&gt;&lt;font color=&quot;#ff4e4e&quot;&gt;color2&lt;/font&gt; is &quot;&lt;font color=&quot;#ff4e4e&quot;&gt;red&lt;/font&gt;&quot;),        &lt;br&gt;&lt;br&gt; then                     &lt;br&gt;&lt;br&gt;  Display &quot;When you mix  &lt;br&gt;&lt;br&gt;&lt;font color=&quot;#ff4e4e&quot;&gt;   red&lt;/font&gt; and &lt;font color=&quot;#7a5d0a&quot;&gt;yellow&lt;/font&gt;, you get  &lt;br&gt;&lt;br&gt;&lt;font color=&quot;#ff6c17&quot;&gt;orange&lt;/font&gt;.&quot;" style="text;whiteSpace=wrap;html=1;verticalAlign=middle;fontColor=#FFFFFF;labelBackgroundColor=#121212;labelBorderColor=none;textShadow=0;" vertex="1" parent="WIyWlLk6GJQsqaUBKTNV-1">
          <mxGeometry x="303.75" y="480" width="162.5" height="230" as="geometry" />
        </mxCell>
        <mxCell id="tAK1Aq4FmUaZZ4Jkdsqc-26" style="edgeStyle=orthogonalEdgeStyle;rounded=0;orthogonalLoop=1;jettySize=auto;html=1;entryX=0.829;entryY=-0.012;entryDx=0;entryDy=0;entryPerimeter=0;" edge="1" parent="WIyWlLk6GJQsqaUBKTNV-1" source="tAK1Aq4FmUaZZ4Jkdsqc-8" target="tAK1Aq4FmUaZZ4Jkdsqc-24">
          <mxGeometry relative="1" as="geometry" />
        </mxCell>
        <mxCell id="tAK1Aq4FmUaZZ4Jkdsqc-29" value="" style="rounded=1;whiteSpace=wrap;html=1;fontSize=12;glass=0;strokeWidth=1;shadow=0;fillColor=#d5e8d4;strokeColor=#82B365;" vertex="1" parent="WIyWlLk6GJQsqaUBKTNV-1">
          <mxGeometry x="530" y="470" width="170" height="250" as="geometry" />
        </mxCell>
        <mxCell id="tAK1Aq4FmUaZZ4Jkdsqc-31" value="If (&lt;font color=&quot;#3399ff&quot;&gt;color1&lt;/font&gt; is &quot;&lt;font color=&quot;#3399ff&quot;&gt;blue&lt;/font&gt;&quot; AND  &lt;br&gt;&lt;br&gt;&lt;font color=&quot;#664d08&quot;&gt; color2&lt;/font&gt; is &quot;&lt;font color=&quot;#664d08&quot;&gt;yellow&lt;/font&gt;&lt;font color=&quot;#3399ff&quot;&gt;&quot;&lt;/font&gt;) OR     &lt;br&gt;&lt;br&gt; (&lt;font color=&quot;#664d08&quot;&gt;color1&lt;/font&gt; is &quot;&lt;font color=&quot;#664d08&quot;&gt;yellow&lt;/font&gt;&quot; AND&amp;nbsp; &amp;nbsp; &amp;nbsp; &amp;nbsp; &amp;nbsp;&amp;nbsp;&lt;br&gt;&lt;br&gt;&lt;font color=&quot;#3399ff&quot;&gt;color2&lt;/font&gt; is &quot;&lt;font color=&quot;#3399ff&quot;&gt;blue&lt;/font&gt;&quot;),        &lt;br&gt;&lt;br&gt; then                     &lt;br&gt;&lt;br&gt;  Display &quot;When you mix  &lt;br&gt;&lt;br&gt;&lt;font color=&quot;#3399ff&quot;&gt;blue&lt;/font&gt; and &lt;font color=&quot;#664d08&quot;&gt;yellow&lt;/font&gt;, you get  &lt;br&gt;&lt;br&gt;&lt;font color=&quot;#03a00e&quot;&gt;green&lt;/font&gt;.&quot;" style="text;whiteSpace=wrap;html=1;verticalAlign=middle;fontColor=#FFFFFF;labelBackgroundColor=#121212;labelBorderColor=none;textShadow=0;" vertex="1" parent="WIyWlLk6GJQsqaUBKTNV-1">
          <mxGeometry x="537.5" y="480" width="162.5" height="230" as="geometry" />
        </mxCell>
        <mxCell id="tAK1Aq4FmUaZZ4Jkdsqc-35" style="edgeStyle=orthogonalEdgeStyle;rounded=0;orthogonalLoop=1;jettySize=auto;html=1;" edge="1" parent="WIyWlLk6GJQsqaUBKTNV-1" source="tAK1Aq4FmUaZZ4Jkdsqc-33">
          <mxGeometry relative="1" as="geometry">
            <mxPoint x="140" y="620" as="targetPoint" />
          </mxGeometry>
        </mxCell>
        <mxCell id="tAK1Aq4FmUaZZ4Jkdsqc-33" value="&lt;div style=&quot;text-align: left;&quot;&gt;&lt;font face=&quot;Söhne Mono, Monaco, Andale Mono, Ubuntu Mono, monospace&quot; color=&quot;#ffffff&quot;&gt;&lt;span style=&quot;font-size: 14px; white-space: pre; background-color: rgb(13, 13, 13);&quot;&gt;Else&lt;/span&gt;&lt;/font&gt;&lt;/div&gt;&lt;div style=&quot;text-align: left;&quot;&gt;&lt;font face=&quot;Söhne Mono, Monaco, Andale Mono, Ubuntu Mono, monospace&quot; color=&quot;#ffffff&quot;&gt;&lt;span style=&quot;font-size: 14px; white-space: pre; background-color: rgb(13, 13, 13);&quot;&gt;Display &quot;Error: Please&lt;/span&gt;&lt;/font&gt;&lt;/div&gt;&lt;div style=&quot;text-align: left;&quot;&gt;&lt;font face=&quot;Söhne Mono, Monaco, Andale Mono, Ubuntu Mono, monospace&quot;&gt;&lt;span style=&quot;font-size: 14px; white-space: pre; background-color: rgb(13, 13, 13);&quot;&gt;&lt;font color=&quot;#ffffff&quot;&gt;enter only &#39;&lt;/font&gt;&lt;font color=&quot;#ff6666&quot;&gt;red&lt;/font&gt;&lt;font color=&quot;#ffffff&quot;&gt;&#39;,&lt;/font&gt;&lt;/span&gt;&lt;/font&gt;&lt;/div&gt;&lt;div style=&quot;text-align: left;&quot;&gt;&lt;font face=&quot;Söhne Mono, Monaco, Andale Mono, Ubuntu Mono, monospace&quot;&gt;&lt;span style=&quot;font-size: 14px; white-space: pre; background-color: rgb(13, 13, 13);&quot;&gt;&lt;font color=&quot;#ffffff&quot;&gt;&#39;&lt;/font&gt;&lt;font color=&quot;#3399ff&quot;&gt;blue&lt;/font&gt;&lt;font color=&quot;#ffffff&quot;&gt;&#39;, or &#39;&lt;/font&gt;&lt;font color=&quot;#664d08&quot;&gt;yellow&lt;/font&gt;&lt;font color=&quot;#ffffff&quot;&gt;&#39;&lt;/font&gt;&lt;/span&gt;&lt;/font&gt;&lt;/div&gt;&lt;div style=&quot;text-align: left;&quot;&gt;&lt;font face=&quot;Söhne Mono, Monaco, Andale Mono, Ubuntu Mono, monospace&quot; color=&quot;#ffffff&quot;&gt;&lt;span style=&quot;font-size: 14px; white-space: pre; background-color: rgb(13, 13, 13);&quot;&gt;as primary colors.&quot;&lt;/span&gt;&lt;/font&gt;&lt;/div&gt;" style="rounded=1;whiteSpace=wrap;html=1;fontSize=12;glass=0;strokeWidth=1;shadow=0;fillColor=#dae8fc;strokeColor=#6c8ebf;" vertex="1" parent="WIyWlLk6GJQsqaUBKTNV-1">
          <mxGeometry x="40" y="470" width="200" height="110" as="geometry" />
        </mxCell>
        <mxCell id="tAK1Aq4FmUaZZ4Jkdsqc-36" value="&lt;div style=&quot;text-align: left;&quot;&gt;&lt;font color=&quot;#3399ff&quot; face=&quot;Söhne Mono, Monaco, Andale Mono, Ubuntu Mono, monospace&quot;&gt;&lt;span style=&quot;font-size: 14px; white-space: pre; background-color: rgb(13, 13, 13);&quot;&gt;End&lt;/span&gt;&lt;/font&gt;&lt;/div&gt;" style="rounded=1;whiteSpace=wrap;html=1;fontSize=12;glass=0;strokeWidth=1;shadow=0;fillColor=#dae8fc;strokeColor=#6c8ebf;" vertex="1" parent="WIyWlLk6GJQsqaUBKTNV-1">
          <mxGeometry x="55" y="620" width="170" height="40" as="geometry" />
        </mxCell>
      </root>
    </mxGraphModel>
  </diagram>
</mxfile>
